SourceCode-ExtraLight.ufo
<glyph name="B" format="2">
	<unicode hex="0042"/>
	<advance width="600"/>
	<outline>
		<contour>
			<point x="120" y="0" type="line"/>
			<point x="292" y="0" type="line" smooth="yes"/>
			<point x="446" y="0"/>
			<point x="534" y="66"/>
			<point x="534" y="192" type="curve" smooth="yes"/>
			<point x="534" y="284"/>
			<point x="473" y="338"/>
			<point x="375" y="352" type="curve"/>
			<point x="375" y="356" type="line"/>
			<point x="453" y="376"/>
			<point x="492" y="430"/>
			<point x="492" y="500" type="curve" smooth="yes"/>
			<point x="492" y="608"/>
			<point x="416" y="660"/>
			<point x="280" y="660" type="curve" smooth="yes"/>
			<point x="120" y="660" type="line"/>
		</contour>
		<contour>
			<point x="152" y="366" type="line"/>
			<point x="152" y="632" type="line"/>
			<point x="266" y="632" type="line" smooth="yes"/>
			<point x="398" y="632"/>
			<point x="460" y="594"/>
			<point x="460" y="500" type="curve" smooth="yes"/>
			<point x="460" y="412"/>
			<point x="404" y="366"/>
			<point x="260" y="366" type="curve" smooth="yes"/>
		</contour>
		<contour>
			<point x="152" y="28" type="line"/>
			<point x="152" y="338" type="line"/>
			<point x="280" y="338" type="line" smooth="yes"/>
			<point x="422" y="338"/>
			<point x="502" y="290"/>
			<point x="502" y="190" type="curve" smooth="yes"/>
			<point x="502" y="78"/>
			<point x="422" y="28"/>
			<point x="280" y="28" type="curve" smooth="yes"/>
		</contour>
	</outline>
	<anchor name="aboveUC" x="296" y="680"/>
	<anchor name="belowLC" x="305" y="-20"/>
</glyph>
<glyph name="questiondown" format="2">
	<unicode hex="00BF"/>
	<advance width="600"/>
	<outline>
		<contour>
			<point x="306" y="-204" type="curve" smooth="yes"/>
			<point x="382" y="-204"/>
			<point x="440" y="-172"/>
			<point x="482" y="-130" type="curve"/>
			<point x="460" y="-110" type="line"/>
			<point x="420" y="-152"/>
			<point x="366" y="-176"/>
			<point x="308" y="-176" type="curve" smooth="yes"/>
			<point x="210" y="-176"/>
			<point x="168" y="-118"/>
			<point x="168" y="-52" type="curve" smooth="yes"/>
			<point x="168" y="72"/>
			<point x="364" y="114"/>
			<point x="338" y="264" type="curve"/>
			<point x="310" y="264" type="line"/>
			<point x="332" y="123"/>
			<point x="136" y="86"/>
			<point x="136" y="-54" type="curve" smooth="yes"/>
			<point x="136" y="-136"/>
			<point x="198" y="-204"/>
		</contour>
		<contour>
			<point x="314" y="374" type="curve" smooth="yes"/>
			<point x="340" y="374"/>
			<point x="366" y="394"/>
			<point x="366" y="432" type="curve" smooth="yes"/>
			<point x="366" y="470"/>
			<point x="340" y="490"/>
			<point x="314" y="490" type="curve" smooth="yes"/>
			<point x="288" y="490"/>
			<point x="262" y="470"/>
			<point x="262" y="432" type="curve" smooth="yes"/>
			<point x="262" y="394"/>
			<point x="288" y="374"/>
		</contour>
	</outline>
</glyph>
<glyph name="Tbar" format="2">
	<unicode hex="0166"/>
	<advance width="600"/>
	<outline>
		<contour>
			<point x="136" y="336" type="line"/>
			<point x="464" y="336" type="line"/>
			<point x="464" y="364" type="line"/>
			<point x="220" y="364" type="line"/>
			<point x="136" y="362" type="line"/>
		</contour>
		<component base="T"/>
	</outline>
	<anchor name="aboveUC" x="300" y="680"/>
	<anchor name="belowLC" x="300" y="-20"/>
</glyph>
<glyph name="nretroflex" format="2">
	<unicode hex="0273"/>
	<advance width="600"/>
	<outline>
		<contour>
			<point x="568" y="-180" type="curve" smooth="yes"/>
			<point x="584" y="-180"/>
			<point x="606" y="-174"/>
			<point x="616" y="-168" type="curve"/>
			<point x="608" y="-142" type="line"/>
			<point x="598" y="-146"/>
			<point x="582" y="-152"/>
			<point x="566" y="-152" type="curve" smooth="yes"/>
			<point x="522" y="-152"/>
			<point x="510" y="-110"/>
			<point x="510" y="-50" type="curve"/>
			<point x="510" y="298" type="line" smooth="yes"/>
			<point x="510" y="429"/>
			<point x="453" y="490"/>
			<point x="336" y="490" type="curve" smooth="yes"/>
			<point x="258" y="490"/>
			<point x="201" y="444"/>
			<point x="144" y="382" type="curve"/>
			<point x="140" y="382" type="line"/>
			<point x="136" y="478" type="line"/>
			<point x="110" y="478" type="line"/>
			<point x="110" y="0" type="line"/>
			<point x="140" y="0" type="line"/>
			<point x="140" y="346" type="line"/>
			<point x="214" y="424"/>
			<point x="264" y="462"/>
			<point x="336" y="462" type="curve" smooth="yes"/>
			<point x="437" y="462"/>
			<point x="480" y="407"/>
			<point x="480" y="294" type="curve" smooth="yes"/>
			<point x="480" y="-54" type="line"/>
			<point x="480" y="-144"/>
			<point x="508" y="-180"/>
		</contour>
	</outline>
	<anchor name="aboveLC" x="320" y="500"/>
	<anchor name="belowLC" x="500" y="-230"/>
</glyph>
<glyph name="dotlessjstrokehook" format="2">
	<unicode hex="0284"/>
	<advance width="600"/>
	<outline>
		<contour>
			<point x="88" y="238" type="line"/>
			<point x="508" y="238" type="line"/>
			<point x="508" y="266" type="line"/>
			<point x="286" y="266" type="line"/>
			<point x="88" y="262" type="line"/>
		</contour>
		<component base="esh"/>
	</outline>
	<anchor name="aboveUC" x="340" y="740"/>
	<anchor name="belowLC" x="280" y="-230"/>
</glyph>
<glyph name="gravecmb" format="2">
	<unicode hex="0300"/>
	<advance width="600"/>
	<outline>
		<contour>
			<point x="334" y="574" type="line"/>
			<point x="352" y="590" type="line"/>
			<point x="220" y="746" type="line"/>
			<point x="196" y="724" type="line"/>
		</contour>
	</outline>
	<anchor name="_aboveLC" x="300" y="500"/>
	<anchor name="aboveLC" x="300" y="500"/>
</glyph>
<glyph name="acutecmb" format="2">
	<unicode hex="0301"/>
	<advance width="600"/>
	<outline>
		<contour>
			<point x="266" y="574" type="line"/>
			<point x="404" y="724" type="line"/>
			<point x="380" y="746" type="line"/>
			<point x="248" y="590" type="line"/>
		</contour>
	</outline>
	<anchor name="_aboveLC" x="300" y="500"/>
	<anchor name="aboveLC" x="300" y="500"/>
</glyph>
<glyph name="circumflexcmb" format="2">
	<unicode hex="0302"/>
	<advance width="600"/>
	<outline>
		<contour>
			<point x="186" y="574" type="line"/>
			<point x="298" y="704" type="line"/>
			<point x="302" y="704" type="line"/>
			<point x="414" y="574" type="line"/>
			<point x="432" y="590" type="line"/>
			<point x="314" y="736" type="line"/>
			<point x="286" y="736" type="line"/>
			<point x="168" y="590" type="line"/>
		</contour>
	</outline>
	<anchor name="_aboveLC" x="300" y="500"/>
	<anchor name="aboveLC" x="300" y="728"/>
</glyph>
<glyph name="macroncmb" format="2">
	<unicode hex="0304"/>
	<advance width="600"/>
	<outline>
		<contour>
			<point x="180" y="608" type="line"/>
			<point x="420" y="608" type="line"/>
			<point x="420" y="636" type="line"/>
			<point x="180" y="636" type="line"/>
		</contour>
	</outline>
	<anchor name="_aboveLC" x="300" y="500"/>
	<anchor name="aboveLC" x="300" y="500"/>
</glyph>
<glyph name="tildeoverlaycmb" format="2">
	<unicode hex="0334"/>
	<advance width="600"/>
	<outline>
		<contour>
			<point x="377" y="178" type="curve" smooth="yes"/>
			<point x="440" y="178"/>
			<point x="456" y="244"/>
			<point x="460" y="300" type="curve"/>
			<point x="434" y="302" type="line"/>
			<point x="432" y="250"/>
			<point x="416" y="204"/>
			<point x="379" y="204" type="curve" smooth="yes"/>
			<point x="320" y="204"/>
			<point x="300" y="304"/>
			<point x="224" y="304" type="curve" smooth="yes"/>
			<point x="160" y="304"/>
			<point x="144" y="239"/>
			<point x="140" y="182" type="curve"/>
			<point x="166" y="180" type="line"/>
			<point x="168" y="234"/>
			<point x="184" y="278"/>
			<point x="222" y="278" type="curve" smooth="yes"/>
			<point x="280" y="278"/>
			<point x="300" y="178"/>
		</contour>
	</outline>
	<anchor name="_center" x="300" y="240"/>
</glyph>
<glyph name="macrondoublebelowcmb" format="2">
	<unicode hex="035F"/>
	<advance width="600"/>
	<outline>
		<contour>
			<point x="-180" y="-156" type="line"/>
			<point x="780" y="-156" type="line"/>
			<point x="780" y="-128" type="line"/>
			<point x="-180" y="-128" type="line"/>
		</contour>
	</outline>
</glyph>
<glyph name="rho" format="2">
	<unicode hex="03C1"/>
	<advance width="600"/>
	<outline>
		<contour>
			<point x="110" y="-180" type="line"/>
			<point x="140" y="-180" type="line"/>
			<point x="140" y="-84"/>
			<point x="140" y="-28"/>
			<point x="138" y="68" type="curve"/>
			<point x="192" y="5"/>
			<point x="252" y="-12"/>
			<point x="318" y="-12" type="curve" smooth="yes"/>
			<point x="426" y="-12"/>
			<point x="530" y="84"/>
			<point x="530" y="246" type="curve" smooth="yes"/>
			<point x="530" y="394"/>
			<point x="461" y="490"/>
			<point x="322" y="490" type="curve" smooth="yes"/>
			<point x="210" y="490"/>
			<point x="110" y="410"/>
			<point x="110" y="257" type="curve" smooth="yes"/>
		</contour>
		<contour>
			<point x="320" y="16" type="curve" smooth="yes"/>
			<point x="263" y="16"/>
			<point x="200" y="27"/>
			<point x="140" y="102" type="curve"/>
			<point x="140" y="244" type="line" smooth="yes"/>
			<point x="140" y="396"/>
			<point x="228" y="462"/>
			<point x="320" y="462" type="curve" smooth="yes"/>
			<point x="447" y="462"/>
			<point x="498" y="368"/>
			<point x="498" y="246" type="curve" smooth="yes"/>
			<point x="498" y="112"/>
			<point x="419" y="16"/>
		</contour>
	</outline>
	<anchor name="aboveLC" x="340" y="500"/>
</glyph>
<glyph name="f.sups" format="2">
	<unicode hex="1DA0"/>
	<advance width="600"/>
	<outline>
		<contour>
			<point x="293" y="410" type="line"/>
			<point x="324" y="410" type="line"/>
			<point x="324" y="767" type="line" smooth="yes"/>
			<point x="324" y="825"/>
			<point x="349" y="865"/>
			<point x="416" y="865" type="curve" smooth="yes"/>
			<point x="444" y="865"/>
			<point x="463" y="862"/>
			<point x="490" y="851" type="curve"/>
			<point x="499" y="876" type="line"/>
			<point x="468" y="888"/>
			<point x="442" y="892"/>
			<point x="414" y="892" type="curve" smooth="yes"/>
			<point x="333" y="892"/>
			<point x="293" y="844"/>
			<point x="293" y="764" type="curve" smooth="yes"/>
		</contour>
		<contour>
			<point x="210" y="699" type="line"/>
			<point x="466" y="699" type="line"/>
			<point x="466" y="726" type="line"/>
			<point x="293" y="726" type="line"/>
			<point x="210" y="724" type="line"/>
		</contour>
	</outline>
</glyph>
<glyph name="trademark" format="2">
	<unicode hex="2122"/>
	<advance width="600"/>
	<outline>
		<contour>
			<point x="112" y="370" type="line"/>
			<point x="142" y="370" type="line"/>
			<point x="142" y="648" type="line"/>
			<point x="252" y="648" type="line"/>
			<point x="252" y="676" type="line"/>
			<point x="2" y="676" type="line"/>
			<point x="2" y="648" type="line"/>
			<point x="112" y="648" type="line"/>
		</contour>
		<contour>
			<point x="306" y="370" type="line"/>
			<point x="336" y="370" type="line"/>
			<point x="336" y="540" type="line"/>
			<point x="332" y="636" type="line"/>
			<point x="336" y="636" type="line"/>
			<point x="422" y="418" type="line"/>
			<point x="452" y="418" type="line"/>
			<point x="538" y="636" type="line"/>
			<point x="542" y="636" type="line"/>
			<point x="538" y="540" type="line"/>
			<point x="538" y="370" type="line"/>
			<point x="568" y="370" type="line"/>
			<point x="568" y="676" type="line"/>
			<point x="524" y="676" type="line"/>
			<point x="472" y="546" type="line"/>
			<point x="440" y="458" type="line"/>
			<point x="436" y="458" type="line"/>
			<point x="404" y="546" type="line"/>
			<point x="350" y="676" type="line"/>
			<point x="306" y="676" type="line"/>
		</contour>
	</outline>
</glyph>
<glyph name="heavyupleftbxd" format="2">
	<unicode hex="251B"/>
	<advance width="600"/>
	<outline>
		<contour>
			<point x="-15" y="270" type="line"/>
			<point x="330" y="270" type="line"/>
			<point x="330" y="1000" type="line"/>
			<point x="270" y="1000" type="line"/>
			<point x="270" y="330" type="line"/>
			<point x="-15" y="330" type="line"/>
		</contour>
	</outline>
</glyph>
<glyph name="squareblack" format="2">
	<unicode hex="25A0"/>
	<advance width="600"/>
	<outline>
		<contour>
			<point x="100" y="130" type="line"/>
			<point x="500" y="130" type="line"/>
			<point x="500" y="530" type="line"/>
			<point x="100" y="530" type="line"/>
		</contour>
	</outline>
</glyph>
<glyph name="squarewhite" format="2">
	<unicode hex="25A1"/>
	<advance width="600"/>
	<outline>
		<contour>
			<point x="88" y="118" type="line"/>
			<point x="512" y="118" type="line"/>
			<point x="512" y="542" type="line"/>
			<point x="88" y="542" type="line"/>
		</contour>
		<contour>
			<point x="116" y="144" type="line"/>
			<point x="116" y="516" type="line"/>
			<point x="484" y="516" type="line"/>
			<point x="484" y="144" type="line"/>
		</contour>
	</outline>
</glyph>
<glyph name="triangleupwhite" format="2">
	<unicode hex="25B3"/>
	<advance width="600"/>
	<outline>
		<contour>
			<point x="60" y="108" type="line"/>
			<point x="540" y="108" type="line"/>
			<point x="540" y="110" type="line"/>
			<point x="301" y="612" type="line"/>
			<point x="299" y="612" type="line"/>
			<point x="60" y="110" type="line"/>
		</contour>
		<contour>
			<point x="96" y="130" type="line"/>
			<point x="300" y="562" type="line"/>
			<point x="504" y="130" type="line"/>
		</contour>
	</outline>
</glyph>
<glyph name="sun" format="2">
	<unicode hex="263C"/>
	<advance width="600"/>
	<outline>
		<contour>
			<point x="300" y="152" type="curve" smooth="yes"/>
			<point x="406" y="152"/>
			<point x="480" y="228"/>
			<point x="480" y="330" type="curve" smooth="yes"/>
			<point x="480" y="432"/>
			<point x="406" y="508"/>
			<point x="300" y="508" type="curve" smooth="yes"/>
			<point x="194" y="508"/>
			<point x="120" y="432"/>
			<point x="120" y="330" type="curve" smooth="yes"/>
			<point x="120" y="228"/>
			<point x="194" y="152"/>
		</contour>
		<contour>
			<point x="300" y="180" type="curve" smooth="yes"/>
			<point x="214" y="180"/>
			<point x="152" y="242"/>
			<point x="152" y="330" type="curve" smooth="yes"/>
			<point x="152" y="418"/>
			<point x="214" y="480"/>
			<point x="300" y="480" type="curve" smooth="yes"/>
			<point x="386" y="480"/>
			<point x="448" y="418"/>
			<point x="448" y="330" type="curve" smooth="yes"/>
			<point x="448" y="242"/>
			<point x="386" y="180"/>
		</contour>
		<contour>
			<point x="286" y="490" type="line"/>
			<point x="314" y="490" type="line"/>
			<point x="314" y="630" type="line"/>
			<point x="286" y="630" type="line"/>
		</contour>
		<contour>
			<point x="170" y="436" type="line"/>
			<point x="190" y="456" type="line"/>
			<point x="88" y="560" type="line"/>
			<point x="68" y="540" type="line"/>
		</contour>
		<contour>
			<point x="428" y="438" type="line"/>
			<point x="532" y="540" type="line"/>
			<point x="512" y="560" type="line"/>
			<point x="408" y="458" type="line"/>
		</contour>
		<contour>
			<point x="4" y="316" type="line"/>
			<point x="144" y="316" type="line"/>
			<point x="144" y="344" type="line"/>
			<point x="4" y="344" type="line"/>
		</contour>
		<contour>
			<point x="456" y="316" type="line"/>
			<point x="596" y="316" type="line"/>
			<point x="596" y="344" type="line"/>
			<point x="456" y="344" type="line"/>
		</contour>
		<contour>
			<point x="88" y="98" type="line"/>
			<point x="192" y="200" type="line"/>
			<point x="172" y="220" type="line"/>
			<point x="68" y="118" type="line"/>
		</contour>
		<contour>
			<point x="512" y="98" type="line"/>
			<point x="532" y="118" type="line"/>
			<point x="430" y="222" type="line"/>
			<point x="410" y="202" type="line"/>
		</contour>
		<contour>
			<point x="286" y="30" type="line"/>
			<point x="314" y="30" type="line"/>
			<point x="314" y="170" type="line"/>
			<point x="286" y="170" type="line"/>
		</contour>
	</outline>
</glyph>
<glyph name="club" format="2">
	<unicode hex="2663"/>
	<advance width="600"/>
	<outline>
		<contour>
			<point x="112" y="0" type="line"/>
			<point x="488" y="0" type="line"/>
			<point x="488" y="26" type="line"/>
			<point x="398" y="40"/>
			<point x="332" y="88"/>
			<point x="312" y="272" type="curve"/>
			<point x="288" y="272" type="line"/>
			<point x="268" y="88"/>
			<point x="202" y="40"/>
			<point x="112" y="26" type="curve"/>
		</contour>
		<contour>
			<point x="152" y="162" type="curve" smooth="yes"/>
			<point x="202" y="162"/>
			<point x="251" y="183"/>
			<point x="278" y="248" type="curve"/>
			<point x="322" y="248" type="line"/>
			<point x="349" y="183"/>
			<point x="398" y="162"/>
			<point x="448" y="162" type="curve" smooth="yes"/>
			<point x="531" y="162"/>
			<point x="584" y="228"/>
			<point x="584" y="320" type="curve" smooth="yes"/>
			<point x="584" y="410"/>
			<point x="524" y="460"/>
			<point x="442" y="460" type="curve" smooth="yes"/>
			<point x="422" y="460"/>
			<point x="402" y="454"/>
			<point x="376" y="440" type="curve"/>
			<point x="372" y="444" type="line"/>
			<point x="436" y="506"/>
			<point x="444" y="559"/>
			<point x="444" y="594" type="curve" smooth="yes"/>
			<point x="444" y="668"/>
			<point x="380" y="722"/>
			<point x="300" y="722" type="curve" smooth="yes"/>
			<point x="220" y="722"/>
			<point x="156" y="668"/>
			<point x="156" y="594" type="curve" smooth="yes"/>
			<point x="156" y="559"/>
			<point x="164" y="506"/>
			<point x="228" y="444" type="curve"/>
			<point x="224" y="440" type="line"/>
			<point x="198" y="454"/>
			<point x="178" y="460"/>
			<point x="158" y="460" type="curve" smooth="yes"/>
			<point x="76" y="460"/>
			<point x="16" y="410"/>
			<point x="16" y="320" type="curve" smooth="yes"/>
			<point x="16" y="228"/>
			<point x="70" y="162"/>
		</contour>
	</outline>
</glyph>
<glyph name="heartblackheavy" format="2">
	<unicode hex="2764"/>
	<advance width="600"/>
	<outline>
		<contour>
			<point x="302" y="-2" type="line"/>
			<point x="400" y="190"/>
			<point x="682" y="164"/>
			<point x="682" y="460" type="curve" smooth="yes"/>
			<point x="682" y="592"/>
			<point x="598" y="668"/>
			<point x="480" y="668" type="curve" smooth="yes"/>
			<point x="388" y="668"/>
			<point x="328" y="632"/>
			<point x="302" y="528" type="curve"/>
			<point x="298" y="528" type="line"/>
			<point x="272" y="632"/>
			<point x="212" y="668"/>
			<point x="120" y="668" type="curve" smooth="yes"/>
			<point x="2" y="668"/>
			<point x="-82" y="592"/>
			<point x="-82" y="460" type="curve" smooth="yes"/>
			<point x="-82" y="164"/>
			<point x="200" y="190"/>
			<point x="298" y="-2" type="curve"/>
		</contour>
	</outline>
</glyph>
<glyph name="brackhalfbotleft" format="2">
	<unicode hex="2E24"/>
	<advance width="600"/>
	<outline>
		<contour>
			<point x="246" y="-152" type="line"/>
			<point x="506" y="-152" type="line"/>
			<point x="506" y="-130" type="line"/>
			<point x="274" y="-130" type="line"/>
			<point x="274" y="278" type="line"/>
			<point x="246" y="278" type="line"/>
		</contour>
	</outline>
</glyph>
<glyph name="brevecmb.cyr" format="2">
	<advance width="600"/>
	<outline>
		<contour>
			<point x="300" y="572" type="curve" smooth="yes"/>
			<point x="410" y="572"/>
			<point x="439" y="654"/>
			<point x="444" y="714" type="curve"/>
			<point x="414" y="716" type="line"/>
			<point x="412" y="658"/>
			<point x="385" y="596"/>
			<point x="300" y="596" type="curve" smooth="yes"/>
			<point x="215" y="596"/>
			<point x="188" y="658"/>
			<point x="186" y="716" type="curve"/>
			<point x="156" y="714" type="line"/>
			<point x="161" y="654"/>
			<point x="190" y="572"/>
		</contour>
	</outline>
	<anchor name="_aboveLC" x="300" y="500"/>
	<anchor name="aboveLC" x="300" y="500"/>
</glyph>
<glyph name="dotlessi.a" format="2">
	<advance width="600"/>
	<outline>
		<contour>
			<point x="326" y="0" type="line"/>
			<point x="356" y="0" type="line"/>
			<point x="356" y="478" type="line"/>
			<point x="140" y="478" type="line"/>
			<point x="140" y="450" type="line"/>
			<point x="326" y="450" type="line"/>
		</contour>
		<contour>
			<point x="114" y="0" type="line"/>
			<point x="564" y="0" type="line"/>
			<point x="564" y="28" type="line"/>
			<point x="114" y="28" type="line"/>
		</contour>
	</outline>
	<anchor name="aboveLC" x="330" y="500"/>
	<anchor name="baseLC" x="334" y="0"/>
	<anchor name="belowLC" x="330" y="-20"/>
	<anchor name="ogonekLC" x="340" y="0"/>
</glyph>
<glyph name="l.a" format="2">
	<advance width="600"/>
	<outline>
		<contour>
			<point x="326" y="0" type="line"/>
			<point x="356" y="0" type="line"/>
			<point x="356" y="722" type="line"/>
			<point x="140" y="722" type="line"/>
			<point x="140" y="694" type="line"/>
			<point x="326" y="694" type="line"/>
		</contour>
		<contour>
			<point x="114" y="0" type="line"/>
			<point x="564" y="0" type="line"/>
			<point x="564" y="28" type="line"/>
			<point x="114" y="28" type="line"/>
		</contour>
	</outline>
	<anchor name="aboveUC" x="340" y="740"/>
	<anchor name="baseLC" x="334" y="0"/>
	<anchor name="belowLC" x="330" y="-20"/>
	<anchor name="center" x="342" y="400"/>
</glyph>
